<?xml version="1.0" encoding="UTF-8" standalone="no"?>
<!-- Created with Inkscape (http://www.inkscape.org/) -->

<svg
   width="450mm"
   height="100mm"
   viewBox="0 0 450 100"
   version="1.1"
   id="svg5"
   sodipodi:docname="download-now.svg"
   inkscape:version="1.1.1 (3bf5ae0d25, 2021-09-20, custom)"
   xmlns:inkscape="http://www.inkscape.org/namespaces/inkscape"
   xmlns:sodipodi="http://sodipodi.sourceforge.net/DTD/sodipodi-0.dtd"
   xmlns="http://www.w3.org/2000/svg"
   xmlns:svg="http://www.w3.org/2000/svg">
  <sodipodi:namedview
     id="namedview7"
     pagecolor="#ffffff"
     bordercolor="#666666"
     borderopacity="1.0"
     inkscape:pageshadow="2"
     inkscape:pageopacity="0.0"
     inkscape:pagecheckerboard="0"
     inkscape:document-units="mm"
     showgrid="false"
     inkscape:zoom="0.26280163"
     inkscape:cx="449.00787"
     inkscape:cy="127.47257"
     inkscape:window-width="1340"
     inkscape:window-height="697"
     inkscape:window-x="10"
     inkscape:window-y="55"
     inkscape:window-maximized="1"
     inkscape:current-layer="layer1" />
  <defs
     id="defs2">
    <rect
       x="220.32498"
       y="188.06921"
       width="1488.949"
       height="530.20044"
       id="rect2840" />
  </defs>
  <g
     inkscape:label="Layer 1"
     inkscape:groupmode="layer"
     id="layer1">
    <rect
       style="fill:#244e84;fill-opacity:1;stroke-width:0.281121"
       id="rect846-6"
       width="414.73953"
       height="80.601234"
       x="17.630234"
       y="15.650474"
       ry="27.518063" />
    <rect
       style="fill:#3f7ecb;fill-opacity:1;stroke-width:0.281121"
       id="rect846"
       width="414.73953"
       height="80.601234"
       x="17.630234"
       y="9.6993828"
       ry="27.518063" />
    <g
       aria-label="DOWNLOAD NOW!"
       transform="matrix(0.26458333,0,0,0.26458333,29.598017,-16.293628)"
       id="text2838"
       style="font-size:120px;line-height:1.25;white-space:pre;shape-inside:url(#rect2840);fill:#ffffff;stroke-width:1.00157">
      <path
         d="m 253.89844,223.81055 v 53.3789 h 8.08593 q 13.82813,0 21.09375,-6.85547 7.32422,-6.85546 7.32422,-19.92187 0,-13.00781 -7.26562,-19.80469 -7.26563,-6.79687 -21.15235,-6.79687 z m -22.5586,-17.05078 h 23.78907 q 19.92187,0 29.64843,2.87109 9.78516,2.8125 16.75782,9.60937 6.15234,5.91797 9.14062,13.65235 2.98828,7.73437 2.98828,17.51953 0,9.90234 -2.98828,17.69531 -2.98828,7.73438 -9.14062,13.65235 -7.03125,6.79687 -16.875,9.66796 -9.84375,2.8125 -29.53125,2.8125 h -23.78907 z"
         style="font-weight:bold;font-family:'DejaVu Sans';-inkscape-font-specification:'DejaVu Sans Bold'"
         id="path41365" />
      <path
         d="m 370.91016,221.52539 q -10.3125,0 -15.9961,7.61719 -5.68359,7.61719 -5.68359,21.44531 0,13.76953 5.68359,21.38672 5.6836,7.61719 15.9961,7.61719 10.37109,0 16.05468,-7.61719 5.6836,-7.61719 5.6836,-21.38672 0,-13.82812 -5.6836,-21.44531 -5.68359,-7.61719 -16.05468,-7.61719 z m 0,-16.34766 q 21.09375,0 33.04687,12.07032 11.95313,12.07031 11.95313,33.33984 0,21.21094 -11.95313,33.28125 -11.95312,12.07031 -33.04687,12.07031 -21.03516,0 -33.04688,-12.07031 -11.95312,-12.07031 -11.95312,-33.28125 0,-21.26953 11.95312,-33.33984 12.01172,-12.07032 33.04688,-12.07032 z"
         style="font-weight:bold;font-family:'DejaVu Sans';-inkscape-font-specification:'DejaVu Sans Bold'"
         id="path41367" />
      <path
         d="m 425.51953,206.75977 h 21.62109 l 15.11719,63.57421 15,-63.57421 h 21.73828 l 15,63.57421 15.11719,-63.57421 h 21.44531 l -20.625,87.48046 h -26.01562 l -15.87891,-66.5039 -15.70312,66.5039 h -26.01563 z"
         style="font-weight:bold;font-family:'DejaVu Sans';-inkscape-font-specification:'DejaVu Sans Bold'"
         id="path41369" />
      <path
         d="m 565.32422,206.75977 h 25.19531 l 31.81641,60 v -60 h 21.38672 v 87.48046 h -25.19532 l -31.8164,-60 v 60 h -21.38672 z"
         style="font-weight:bold;font-family:'DejaVu Sans';-inkscape-font-specification:'DejaVu Sans Bold'"
         id="path41371" />
      <path
         d="m 665.75391,206.75977 h 22.55859 v 70.42968 h 39.60937 v 17.05078 h -62.16796 z"
         style="font-weight:bold;font-family:'DejaVu Sans';-inkscape-font-specification:'DejaVu Sans Bold'"
         id="path41373" />
      <path
         d="m 777.90234,221.52539 q -10.3125,0 -15.99609,7.61719 -5.68359,7.61719 -5.68359,21.44531 0,13.76953 5.68359,21.38672 5.68359,7.61719 15.99609,7.61719 10.3711,0 16.05469,-7.61719 5.68359,-7.61719 5.68359,-21.38672 0,-13.82812 -5.68359,-21.44531 -5.68359,-7.61719 -16.05469,-7.61719 z m 0,-16.34766 q 21.09375,0 33.04688,12.07032 11.95312,12.07031 11.95312,33.33984 0,21.21094 -11.95312,33.28125 -11.95313,12.07031 -33.04688,12.07031 -21.03515,0 -33.04687,-12.07031 -11.95313,-12.07031 -11.95313,-33.28125 0,-21.26953 11.95313,-33.33984 12.01172,-12.07032 33.04687,-12.07032 z"
         style="font-weight:bold;font-family:'DejaVu Sans';-inkscape-font-specification:'DejaVu Sans Bold'"
         id="path41375" />
      <path
         d="m 889.81641,278.30273 h -35.27344 l -5.56641,15.9375 h -22.67578 l 32.40234,-87.48046 h 26.89454 L 918,294.24023 h -22.67578 z m -29.64844,-16.23046 h 23.96484 l -11.95312,-34.80469 z"
         style="font-weight:bold;font-family:'DejaVu Sans';-inkscape-font-specification:'DejaVu Sans Bold'"
         id="path41377" />
      <path
         d="m 952.16016,223.81055 v 53.3789 h 8.08593 q 13.82813,0 21.09375,-6.85547 7.32422,-6.85546 7.32422,-19.92187 0,-13.00781 -7.26562,-19.80469 -7.26563,-6.79687 -21.15235,-6.79687 z m -22.5586,-17.05078 h 23.78906 q 19.92188,0 29.64844,2.87109 9.78516,2.8125 16.75781,9.60937 6.15233,5.91797 9.14063,13.65235 2.9883,7.73437 2.9883,17.51953 0,9.90234 -2.9883,17.69531 -2.9883,7.73438 -9.14063,13.65235 -7.03125,6.79687 -16.875,9.66796 -9.84375,2.8125 -29.53125,2.8125 h -23.78906 z"
         style="font-weight:bold;font-family:'DejaVu Sans';-inkscape-font-specification:'DejaVu Sans Bold'"
         id="path41379" />
      <path
         d="m 1070.9883,206.75977 h 25.1953 l 31.8164,60 v -60 h 21.3867 v 87.48046 h -25.1953 l -31.8164,-60 v 60 h -21.3867 z"
         style="font-weight:bold;font-family:'DejaVu Sans';-inkscape-font-specification:'DejaVu Sans Bold'"
         id="path41381" />
      <path
         d="m 1211.3789,221.52539 q -10.3125,0 -15.9961,7.61719 -5.6836,7.61719 -5.6836,21.44531 0,13.76953 5.6836,21.38672 5.6836,7.61719 15.9961,7.61719 10.3711,0 16.0547,-7.61719 5.6836,-7.61719 5.6836,-21.38672 0,-13.82812 -5.6836,-21.44531 -5.6836,-7.61719 -16.0547,-7.61719 z m 0,-16.34766 q 21.0938,0 33.0469,12.07032 11.9531,12.07031 11.9531,33.33984 0,21.21094 -11.9531,33.28125 -11.9531,12.07031 -33.0469,12.07031 -21.0351,0 -33.0469,-12.07031 -11.9531,-12.07031 -11.9531,-33.28125 0,-21.26953 11.9531,-33.33984 12.0118,-12.07032 33.0469,-12.07032 z"
         style="font-weight:bold;font-family:'DejaVu Sans';-inkscape-font-specification:'DejaVu Sans Bold'"
         id="path41383" />
      <path
         d="m 1265.9883,206.75977 h 21.6211 l 15.1172,63.57421 15,-63.57421 h 21.7382 l 15,63.57421 15.1172,-63.57421 h 21.4453 l -20.625,87.48046 h -26.0156 l -15.8789,-66.5039 -15.7031,66.5039 h -26.0156 z"
         style="font-weight:bold;font-family:'DejaVu Sans';-inkscape-font-specification:'DejaVu Sans Bold'"
         id="path41385" />
      <path
         d="m 1411.5938,206.75977 h 21.0937 v 33.57421 l -2.9883,24.49219 h -15.1172 l -2.9882,-24.49219 z m 0,66.62109 h 21.0937 v 20.85937 h -21.0937 z"
         style="font-weight:bold;font-family:'DejaVu Sans';-inkscape-font-specification:'DejaVu Sans Bold'"
         id="path41387" />
    </g>
    <g
       id="g28821"
       style="fill:#ffffff;fill-opacity:1"
       transform="matrix(0.68418902,0,0,0.68418902,23.925561,2.2347035)">
      <rect
         style="fill:#ffffff;fill-opacity:1;stroke-width:0.264583"
         id="rect27136"
         width="46.841354"
         height="11.45725"
         x="60.90424"
         y="25.685717"
         ry="4.5279822"
         transform="rotate(45)" />
      <rect
         style="fill:#ffffff;fill-opacity:1;stroke-width:0.264583"
         id="rect27136-0"
         width="46.841354"
         height="11.45725"
         x="-37.142967"
         y="96.288345"
         ry="4.5279822"
         transform="rotate(-45)" />
      <rect
         style="fill:#ffffff;fill-opacity:1;stroke-width:0.287734"
         id="rect27136-0-3"
         width="55.397404"
         height="11.45725"
         x="-94.443176"
         y="43.804672"
         ry="4.5279822"
         transform="rotate(-90)" />
    </g>
  </g>
</svg>
