<?xml version="1.0" encoding="UTF-8" standalone="no"?>
<svg
   aria-hidden="true"
   focusable="false"
   data-prefix="fas"
   data-icon="power-off"
   class="svg-inline--fa fa-power-off fa-w-16"
   role="img"
   viewBox="0 0 590 590"
   version="1.1"
   id="svg1205"
   sodipodi:docname="qtile-shadows.svg"
   width="590"
   height="590"
   inkscape:version="1.1.1 (3bf5ae0d25, 2021-09-20, custom)"
   xmlns:inkscape="http://www.inkscape.org/namespaces/inkscape"
   xmlns:sodipodi="http://sodipodi.sourceforge.net/DTD/sodipodi-0.dtd"
   xmlns="http://www.w3.org/2000/svg"
   xmlns:svg="http://www.w3.org/2000/svg">
  <defs
     id="defs1209">
    <filter
       inkscape:collect="always"
       style="color-interpolation-filters:sRGB"
       id="filter1396"
       x="-0.19195978"
       y="-0.19204025"
       width="1.3839196"
       height="1.3840805">
      <feGaussianBlur
         inkscape:collect="always"
         stdDeviation="39.668658"
         id="feGaussianBlur1398" />
    </filter>
  </defs>
  <sodipodi:namedview
     id="namedview1207"
     pagecolor="#ffffff"
     bordercolor="#666666"
     borderopacity="1.0"
     inkscape:pageshadow="2"
     inkscape:pageopacity="0.0"
     inkscape:pagecheckerboard="0"
     showgrid="false"
     width="600px"
     inkscape:zoom="0.10185376"
     inkscape:cx="1305.7937"
     inkscape:cy="-1045.6168"
     inkscape:window-width="1340"
     inkscape:window-height="699"
     inkscape:window-x="10"
     inkscape:window-y="53"
     inkscape:window-maximized="1"
     inkscape:current-layer="svg1205" />
  <path
     fill="currentColor"
     d="M 335.94284,539.48177 C 259.5753,552.20969 178.54086,529.15801 119.63887,470.25601 22.906666,373.5238 22.835955,216.75823 119.28532,119.8846 c 96.30794,-96.732205 254.06346,-97.085758 350.79567,-0.63639 58.9727,58.83128 82.16581,140.00714 69.57931,216.37467 -2.40416,14.14214 -16.40488,23.19311 -30.19346,19.30402 l -31.04199,-8.69742 C 466.8283,342.97679 459.40368,331.59237 461.17144,319.64227 468.73749,268.51845 452.96901,215.27331 413.866,176.1703 348.67076,110.83364 242.3219,109.98511 176.20741,176.0996 c -64.77098,64.77098 -66.75088,171.68553 0.77782,238.3657 36.84026,36.416 89.44901,54.51793 142.90628,46.59833 11.9501,-1.76776 23.26381,5.72757 26.44579,17.25341 l 8.69742,31.04199 c 3.81838,13.71787 -5.02046,27.7893 -19.09188,30.12275 z M 261.06023,317.52095 430.76585,487.22658 c 9.40453,9.40452 24.53661,9.40452 33.94113,0 l 22.62742,-22.62742 c 9.40452,-9.40452 9.40452,-24.5366 0,-33.94112 L 317.62877,260.95241 c -9.40452,-9.40452 -24.53661,-9.40452 -33.94113,0 l -22.62741,22.62741 c -9.40452,9.40452 -9.40452,24.53661 0,33.94113 z"
     id="path1340"
     style="opacity:0.700415;mix-blend-mode:normal;fill:#050505;fill-opacity:1;filter:url(#filter1396)" />
  <path
     fill="currentColor"
     d="M 335.94284,539.48177 C 259.5753,552.20969 178.54086,529.15801 119.63887,470.25601 22.906666,373.5238 22.835955,216.75823 119.28532,119.8846 c 96.30794,-96.732205 254.06346,-97.085758 350.79567,-0.63639 58.9727,58.83128 82.16581,140.00714 69.57931,216.37467 -2.40416,14.14214 -16.40488,23.19311 -30.19346,19.30402 l -31.04199,-8.69742 C 466.8283,342.97679 459.40368,331.59237 461.17144,319.64227 468.73749,268.51845 452.96901,215.27331 413.866,176.1703 348.67076,110.83364 242.3219,109.98511 176.20741,176.0996 c -64.77098,64.77098 -66.75088,171.68553 0.77782,238.3657 36.84026,36.416 89.44901,54.51793 142.90628,46.59833 11.9501,-1.76776 23.26381,5.72757 26.44579,17.25341 l 8.69742,31.04199 c 3.81838,13.71787 -5.02046,27.7893 -19.09188,30.12275 z M 261.06023,317.52095 430.76585,487.22658 c 9.40453,9.40452 24.53661,9.40452 33.94113,0 l 22.62742,-22.62742 c 9.40452,-9.40452 9.40452,-24.5366 0,-33.94112 L 317.62877,260.95241 c -9.40452,-9.40452 -24.53661,-9.40452 -33.94113,0 l -22.62741,22.62741 c -9.40452,9.40452 -9.40452,24.53661 0,33.94113 z"
     id="path1203"
     style="fill:#ffffff;fill-opacity:1" />
</svg>
